<svg xmlns="http://www.w3.org/2000/svg" id="Layer_1" version="1.1" viewBox="0 0 105.1 116"><defs><style>.st0{fill:#fff}.st4{fill:#1f3368}</style></defs><path d="M52.1 1.2S35.1 20.3.6 18.8c0 0-1.8 57.1 51.9 96.5 53.7-39.4 51.8-96.5 51.8-96.5C69.8 20.3 52.7 1.2 52.7 1.2l-.3-.3-.3.3Z" class="st0"/><path d="M52.1 1.2S35.1 20.3.6 18.8c0 0-1.8 57.1 51.9 96.5 53.7-39.4 51.8-96.5 51.8-96.5C69.8 20.3 52.7 1.2 52.7 1.2l-.3-.3-.3.3Z" style="fill:none;stroke:#1f3368;stroke-width:1.1px"/><path d="M4.3 22.3S27.5 24.9 52.4 6c0 0 10.2 11.6 33.5 15l-77 27.1s-4.6-15-4.5-25.8" class="st4"/><path d="m9.9 50.6 80.4-28.4s9 .8 10.7.5c0 0-1.4 14.8-3.5 21.4L17.9 70.9s-7.6-15.8-8-20.2" style="fill:#ec1c24"/><path d="m19.3 73.2 77.6-26.4S85.4 87.4 52.4 111c0 0-22.7-17.1-33.1-37.8" class="st4"/><path d="M22.6 62.7V19.9h12.2v17.9h14.5V17.1h12.1v52.3H49.3V49.2H34.8v13.5H22.6z" class="st0"/><path d="M80.7 33.1c1.6 2.7 2.4 5.8 2.4 9.5s-.8 6.9-2.4 9.2c-.9 1.3-2.2 2.5-4 3.6 2.7 1.2 4.7 3 6 5.5 1.4 2.5 2 5.6 2 9.1s-.8 7-2.3 9.9c-1 1.9-2.2 3.6-3.7 4.9-1.7 1.5-3.6 2.6-5.9 3.1-2.3.6-4.7.8-7.4.8H38.9V26.4h28.2c6.4.1 10.9 2.3 13.6 6.6m-30.4 4.3V51H63c2.3 0 4.1-.5 5.5-1.5 1.4-1 2.1-2.9 2.1-5.5s-.9-4.8-2.8-5.8c-1.6-.6-3.7-1-6.2-1H50.2Zm1 24V77H63c2.3 0 4-.4 5.3-1.1 2.3-1.4 3.4-3.9 3.4-7.8s-1.1-4.5-3.3-5.7c-1.2-.7-3-1-5.2-1.1H51.3Z" class="st0"/><path d="M59.2 38.4v28.7h-7.4V46.9H32.6v13.5h-7.4v-38h7.4v17.9h19.2v-2h7.4Zm-7.4-12.7v-6.1h7.4v6.1h-7.4Zm22.1 28.6v1.6l2 1.4c6.8 4.3 6 12.9 6 12.9.2 12.1-6.8 16.2-19.5 16.2H41.5V49.9h6.9v29.3h13.5S74 80.2 74 69c0-11.1-11.8-9.9-11.8-9.9v-5.9c11.8.1 11.1-8.7 11.1-8.7.4-10.8-11.6-9.4-11.6-9.4H48.5v2.1h-7.1v-8.1h24.3s14.3-1.3 14 13.6c0 0 .3 7.4-4.9 10.9l-1.1.6Z" style="stroke-width:1px;fill:none;stroke:#1f3368"/></svg>