<?xml version="1.0" encoding="utf-8"?>
<!-- Generator: Adobe Illustrator 16.0.0, SVG Export Plug-In . SVG Version: 6.00 Build 0)  -->
<!DOCTYPE svg PUBLIC "-//W3C//DTD SVG 1.1//EN" "http://www.w3.org/Graphics/SVG/1.1/DTD/svg11.dtd">
<svg version="1.1" id="Layer_1" xmlns="http://www.w3.org/2000/svg" xmlns:xlink="http://www.w3.org/1999/xlink" x="0px" y="0px"
	 width="427.965px" height="271px" viewBox="0 0 427.965 271" enable-background="new 0 0 427.965 271" xml:space="preserve">
<g>
	<defs>
		<rect id="SVGID_1_" width="427.965" height="271"/>
	</defs>
	<clipPath id="SVGID_2_">
		<use xlink:href="#SVGID_1_"  overflow="visible"/>
	</clipPath>
	<path clip-path="url(#SVGID_2_)" fill="#020203" d="M427.965,53.663v169.04c0,0-63.054,48.297-218.007,48.297
		C55.006,271,0,223.373,0,223.373V52.992C0,52.992,86.532,0,219.35,0C352.165,0,427.965,53.663,427.965,53.663"/>
	<path clip-path="url(#SVGID_2_)" fill="#FFFFFF" d="M107.662,184.468H58.694c0,0-3.354,0.671-3.354,3.354v16.1
		c0,0,0.336,4.359,4.361,4.359h111.351c0,0,3.689,0,3.689-4.359v-63.727c0,0,0-6.373-4.695-6.373H86.197
		c0,0-3.689,0.335-3.689-3.689v-19.789c0,0,0-4.359,4.359-4.359h101.29c0,0,5.366,0.335,5.366,6.037v123.76
		c0,0,0.336,9.056,13.081,9.391c12.746,0.336,13.751-9.056,13.751-9.056V112.023c0,0-0.336-9.056,9.727-9.056
		c10.062,0,11.738,7.714,11.738,7.714v89.551c0,0,0.336,7.378,6.373,7.378h115.039c0,0,9.393-0.67,9.393-8.72v-43.099l-8.72-10.732
		l8.551-10.062V94.749c0,0-2.179-11.571-10.563-11.571c-8.384,0-134.981-0.375-134.981-0.375s-6.876,0.169-6.876-6.875V45.91
		c0,0,1.326-10.861,12.227-10.861s11.236,10.062,11.236,10.062v16.267c0,0,0,7.211,12.968,7.211c11.629,0,11.181-7.546,11.181-7.546
		V38.906c0,0-1.678-27.67-30.186-27.67h-18.615c0,0-25.49-0.335-25.49,28.341V76.47c0,0-0.168,6.038-6.205,6.038H64.731
		c0,0-9.558,0.168-9.558,9.894v56.178c0,0-1.51,8.05,7.714,8.05h80.495c0,0,6.205-0.335,6.205,8.721v12.577
		c0,0-0.336,6.582-5.87,6.582C138.183,184.51,107.662,184.468,107.662,184.468"/>
	<path clip-path="url(#SVGID_2_)" fill="#020203" d="M307.223,106.209h-32.756c0,0-7.043-0.225-7.043,5.254v17.44
		c0,0-0.226,4.92,6.146,4.92h66.857c0,0,5.254,0.226,5.254-5.701v-16.324c0,0,0.338-5.478-5.812-5.478
		S307.223,106.209,307.223,106.209"/>
	<path clip-path="url(#SVGID_2_)" fill="#020203" d="M307.223,156.74h-32.756c0,0-7.043-0.226-7.043,5.256v17.44
		c0,0-0.226,4.919,6.146,4.919h70.484c0,0,5.253,0.225,5.253-5.702v-16.321c0,0,0.338-5.479-5.813-5.479
		C337.345,156.853,307.223,156.74,307.223,156.74"/>
</g>
</svg>
